<svg width="400" height="400" viewBox="0 0 400 400" fill="none" xmlns="http://www.w3.org/2000/svg">
<path d="M345.202 337.399L261.623 337.704C239.45 330.348 221.283 304.798 221.168 266.49C221.146 260.719 221.541 254.955 222.349 249.254L289.668 232.555L341.6 219.674C345.427 223.457 348.992 227.551 352.268 231.921L302.608 260.872L279.182 274.531L305.506 264.503L360.144 243.691C363.551 249.443 366.587 255.453 369.229 261.676L352.744 280.488L371.392 267.008C371.472 267.214 371.551 267.421 371.63 267.628C383.449 298.608 368.785 337.312 345.202 337.399Z" fill="#DEDDDD"/>
<path d="M331.466 211.003C318.827 215.011 303.288 220.075 287.312 225.339C264.212 232.951 240.198 240.984 222.715 246.856L222.727 246.788C223.373 242.667 224.892 238.773 227.161 235.424C240.111 216.833 256.602 203.845 274.955 199.022H274.957C280.118 197.663 285.404 196.966 290.709 196.947C305.311 196.894 319.143 201.95 331.466 211.003Z" fill="#DEDDDD"/>
<path d="M92.2151 279.48L77.7648 327.264L74.2169 339.004C72.5089 341.854 70.473 344.446 68.1604 346.718H67.8213C49.6153 346.718 33.0829 345.683 20.9006 344.004L22.5962 329.651L26.2352 298.869L30.8879 259.446C33.6384 257.467 36.5184 255.716 39.5041 254.209L43.6062 295.096L45.5424 314.385L46.1039 293.732L47.2671 250.863C50.9353 249.553 54.6868 248.547 58.4904 247.852L64.5834 263.191L61.7028 247.336C61.8268 247.32 61.9508 247.3 62.0747 247.284C80.5725 244.824 97.2908 262.683 92.2151 279.48Z" fill="#DEDDDD"/>
<path d="M24.2298 264.994C23.5443 274.757 22.7749 286.783 22.0092 299.163C21.3674 309.57 20.733 320.223 20.1605 329.982C19.8761 334.849 19.6063 339.495 19.3619 343.779C17.2908 343.477 15.3547 343.151 13.5716 342.812C11.8126 339.364 10.309 335.763 9.07572 332.047C5.93989 322.598 4.74026 312.69 5.79404 302.903V302.899C6.21772 298.952 7.00703 295.064 8.14955 291.296C11.2649 281.089 16.8209 272.001 24.2298 264.994Z" fill="#DEDDDD"/>
<path d="M135.643 336.938C135.643 342.325 105.459 346.689 68.1604 346.718H67.8213C49.6153 346.718 33.083 345.683 20.9006 344.004C20.3792 343.928 19.8651 343.855 19.3619 343.779C17.2908 343.477 15.3546 343.151 13.5716 342.812C5.05014 341.174 0 339.141 0 336.938C0 335.155 3.30355 333.488 9.07566 332.047C12.124 331.286 15.8578 330.594 20.1604 329.982C20.9517 329.865 21.7636 329.755 22.5962 329.651C34.5962 328.101 50.4467 327.159 67.8213 327.159C71.1978 327.159 74.5196 327.196 77.7648 327.264C110.505 327.956 135.643 332.023 135.643 336.938Z" fill="#3F3D56"/>
<path d="M54.6686 251.329L56.3727 266.005C56.3727 266.005 57.0543 270.897 57.7359 273.531C57.7359 273.531 57.0543 287.455 62.5074 297.238L65.9156 304.388L66.5972 314.925L75.1177 316.054L73.4136 300.249C73.4136 300.249 72.7319 292.723 73.4136 289.712C74.0952 286.702 70.0054 272.779 70.0054 272.779C70.0054 272.779 75.4585 253.211 71.3687 248.319C67.2789 243.427 54.6686 251.329 54.6686 251.329Z" fill="#DAAB85"/>
<path d="M69.6646 311.914C69.6646 311.914 65.9156 311.914 65.5748 313.043C65.2339 314.172 59.7808 324.332 59.7808 324.332C59.7808 324.332 55.0094 332.611 61.8258 332.988C68.6421 333.364 70.687 329.977 70.687 329.977C70.687 329.977 76.8217 319.064 77.1625 317.183C77.5034 315.301 74.6018 311.269 74.6018 311.269C74.6018 311.269 70.687 314.172 69.6646 311.914Z" fill="#2F2E41"/>
<path d="M74.4361 127.525C80.8359 127.525 86.0239 121.796 86.0239 114.73C86.0239 107.664 80.8359 101.936 74.4361 101.936C68.0363 101.936 62.8483 107.664 62.8483 114.73C62.8483 121.796 68.0363 127.525 74.4361 127.525Z" fill="#DAAB85"/>
<path d="M65.0635 118.681C65.0635 118.681 65.0635 132.605 60.6329 133.734C56.2022 134.863 66.7676 147.657 72.5615 146.152C78.3554 144.647 80.7411 134.486 80.7411 134.486C80.7411 134.486 75.6289 127.336 77.6738 123.573C79.7187 119.81 65.0635 118.681 65.0635 118.681Z" fill="#DAAB85"/>
<path d="M70.0054 138.061C68.3786 138.005 66.7876 137.52 65.3653 136.646C63.9429 135.773 62.7304 134.536 61.829 133.04C61.829 133.04 57.0543 133.922 56.3727 134.298C55.6911 134.674 43.7624 138.814 41.0359 147.469L51.9421 162.897C51.9421 162.897 49.5563 184.723 51.9421 194.507C53.3627 200.367 53.0035 206.58 50.9196 212.193C50.9196 212.193 49.8972 212.57 51.6013 213.322C53.3053 214.075 92.4994 205.42 93.1811 203.162C93.8627 200.904 92.4994 200.904 93.5219 199.775C94.5443 198.646 97.2709 191.873 94.5443 189.615C91.8178 187.357 90.1137 162.521 90.1137 162.521L97.2709 142.577C97.2709 142.577 84.1902 131.034 79.4835 132.478C79.4835 132.478 78.5259 138.061 70.0054 138.061Z" fill="#D0CDE6"/>
<path d="M74.436 243.803C74.436 243.803 73.7544 260.36 75.1177 266.758C76.4809 273.155 76.4809 275.789 76.4809 275.789C76.4809 275.789 74.436 286.702 75.4585 296.862C76.4809 307.022 74.2656 323.399 74.2656 323.399L82.6157 326.214L87.7279 297.615C87.7279 297.615 91.8178 279.928 89.432 271.65C89.432 271.65 90.7953 246.437 91.8178 243.803C92.8402 241.169 74.436 243.803 74.436 243.803Z" fill="#DAAB85"/>
<path d="M65.2907 117.009C65.4444 115.809 65.7693 114.5 66.6961 113.85C67.6583 113.176 68.9003 113.453 70.0369 113.544C71.1735 113.636 72.5662 113.322 72.9397 112.133C73.1727 111.392 72.921 110.506 73.2844 109.832C73.8627 108.759 75.6284 108.882 75.9329 107.679C76.0294 107.299 75.9356 106.873 76.0749 106.509C76.2627 106.018 76.79 105.822 77.2607 105.701C78.9817 105.262 80.7499 105.09 82.514 105.19C82.6867 105.224 82.8647 105.185 83.0126 105.081C83.0904 104.996 83.146 104.889 83.1734 104.772C83.5725 103.454 83.1499 101.959 82.3558 100.882C81.5123 99.8437 80.4724 99.0233 79.3097 98.4785C76.7354 97.1 73.9449 96.2813 71.0904 96.0668C68.9165 95.916 66.6345 96.1773 64.7828 97.4439C64.234 97.8272 63.7247 98.2755 63.264 98.7808C61.2496 101.011 59.9363 103.896 59.5169 107.012C59.1102 110.12 59.4252 113.291 60.4323 116.228C61.0206 117.996 61.9486 119.822 63.3844 120.911C64.154 121.495 64.8175 122.034 65.1371 121.043C65.476 119.991 65.1415 118.174 65.2907 117.009Z" fill="#2F2E41"/>
<path d="M52.6237 209.936C52.6237 209.936 47.5114 217.462 48.5339 222.73C49.5563 227.998 53.3053 236.653 53.3053 236.653C53.3053 236.653 51.2604 253.587 54.6686 253.587C58.0768 253.587 72.732 252.834 73.0728 250.953C73.4136 249.071 72.0503 230.256 72.0503 230.256C72.0503 230.256 73.7544 246.814 74.7769 246.814C75.7993 246.814 93.5219 248.695 94.2035 247.566C94.8852 246.437 96.2484 217.462 96.2484 217.462C96.2484 217.462 98.1073 203.796 92.236 201.974C86.3647 200.152 52.6237 209.936 52.6237 209.936Z" fill="#2F2E41"/>
<path d="M79.8891 323.203C79.8891 323.203 73.7543 319.44 73.4135 322.451C73.0727 325.461 69.3237 336.374 69.3237 336.374C69.3237 336.374 65.5747 345.029 73.7543 345.406C81.934 345.782 83.9789 341.642 83.9789 339.761C83.9789 337.879 83.0622 324.971 83.0622 324.971L79.8891 323.203Z" fill="#2F2E41"/>
<path d="M101.02 162.897L102.724 179.455C102.724 179.455 104.769 188.486 103.406 192.249C102.042 196.012 96.93 213.322 96.93 213.322C96.93 213.322 95.5668 203.915 92.1586 202.786L94.2035 181.336C94.2035 181.336 89.324 167.951 90.4005 166.177C91.477 164.403 101.02 162.897 101.02 162.897Z" fill="#DAAB85"/>
<path d="M40.3542 164.026L41.0359 179.078C41.0359 179.078 38.6502 192.249 43.4216 206.172L44.1032 212.193L48.5339 221.601C48.5339 221.601 49.5563 212.57 51.6012 212.57C51.6012 212.57 49.5563 206.549 50.238 203.162C50.9196 199.775 49.8972 181.713 49.8972 181.713L51.6012 167.1L40.3542 164.026Z" fill="#DAAB85"/>
<path d="M93.5219 142.201H97.2709C97.2709 142.201 106.132 164.779 102.724 165.155C99.3158 165.531 88.4096 168.542 88.0688 167.037C87.728 165.531 93.5219 142.201 93.5219 142.201Z" fill="#D0CDE6"/>
<path d="M44.1033 144.082L41.0359 147.469C41.0359 147.469 36.9461 164.403 40.0134 166.284C43.0808 168.166 54.6686 170.423 55.3503 168.918C56.0319 167.413 44.1033 144.082 44.1033 144.082Z" fill="#D0CDE6"/>
<path d="M288.452 65.7277V326.692C288.45 329.8 287.329 332.781 285.338 334.978C283.346 337.175 280.646 338.41 277.831 338.411H181.878C180.483 338.414 179.101 338.113 177.812 337.525C176.523 336.937 175.351 336.074 174.365 334.985C173.378 333.896 172.595 332.603 172.062 331.18C171.529 329.757 171.255 328.232 171.256 326.692V65.7277C171.256 64.1875 171.531 62.6625 172.065 61.2395C172.598 59.8166 173.381 58.5237 174.367 57.4347C175.353 56.3456 176.524 55.4818 177.813 54.8924C179.102 54.3031 180.483 53.9999 181.878 54H196.237V56.0331C196.237 58.5941 197.158 61.0503 198.798 62.8615C200.437 64.6728 202.662 65.6907 204.981 65.6914H253.783C255.65 65.6958 257.469 65.0351 258.968 63.8073C259.271 63.5638 259.559 63.2975 259.829 63.0101C260.683 62.1095 261.363 61.0267 261.826 59.8274C262.29 58.6281 262.529 57.3372 262.527 56.0331V54H277.831C279.226 53.9995 280.607 54.3026 281.896 54.8918C283.185 55.481 284.356 56.3448 285.342 57.4339C286.329 58.523 287.111 59.816 287.645 61.2391C288.178 62.6622 288.453 64.1874 288.452 65.7277Z" fill="#3F3D56"/>
<path opacity="0.1" d="M243.209 164.973C258.312 164.973 270.556 162.269 270.556 158.934C270.556 155.599 258.312 152.895 243.209 152.895C228.105 152.895 215.861 155.599 215.861 158.934C215.861 162.269 228.105 164.973 243.209 164.973Z" fill="black"/>
<path opacity="0.1" d="M203.464 195.973C218.568 195.973 230.811 193.269 230.811 189.934C230.811 186.599 218.568 183.895 203.464 183.895C188.361 183.895 176.117 186.599 176.117 189.934C176.117 193.269 188.361 195.973 203.464 195.973Z" fill="black"/>
<path opacity="0.1" d="M226.071 252.739C241.175 252.739 253.418 250.035 253.418 246.7C253.418 243.365 241.175 240.661 226.071 240.661C210.968 240.661 198.724 243.365 198.724 246.7C198.724 250.035 210.968 252.739 226.071 252.739Z" fill="black"/>
<path opacity="0.1" d="M218.414 314.337C233.517 314.337 245.761 311.633 245.761 308.298C245.761 304.962 233.517 302.259 218.414 302.259C203.31 302.259 191.067 304.962 191.067 308.298C191.067 311.633 203.31 314.337 218.414 314.337Z" fill="black"/>
<path d="M313.4 216.447H230.264V225.416V239.074V246.759L237.224 239.074H313.4V216.447Z" fill="#0F8DDB"/>
<path d="M115.223 158.674H198.359V167.643V181.301V188.987L191.399 181.301H115.223V158.674Z" fill="#0F8DDB"/>
<path d="M295.582 221.94H248.812V226.128H295.582V221.94Z" fill="white"/>
<path d="M295.582 228.221H248.812V232.408H295.582V228.221Z" fill="white"/>
<path d="M176.165 164.57H129.395V168.757H176.165V164.57Z" fill="white"/>
<path d="M176.165 170.851H129.395V175.038H176.165V170.851Z" fill="white"/>
<path d="M400 101.765H243.209V118.681V144.44V158.934L256.335 144.44H400V101.765Z" fill="#0F8DDB"/>
<path d="M375.57 111.427H267.639V121.09H375.57V111.427Z" fill="white"/>
<path d="M375.57 125.921H267.639V135.583H375.57V125.921Z" fill="white"/>
<path d="M208.511 296.223C212.502 304.395 220.972 307.903 220.972 307.903C220.972 307.903 222.971 298.162 218.98 289.99C214.989 281.818 206.519 278.31 206.519 278.31C206.519 278.31 204.52 288.051 208.511 296.223Z" fill="white"/>
<path d="M211.254 293.535C218.459 298.321 221.234 307.828 221.234 307.828C221.234 307.828 212.327 309.575 205.122 304.788C197.916 300.002 195.141 290.495 195.141 290.495C195.141 290.495 204.048 288.748 211.254 293.535Z" fill="#0F8DDB"/>
</svg>
